<?xml version="1.0" encoding="UTF-8" standalone="no"?>
<svg
   xmlns:dc="http://purl.org/dc/elements/1.1/"
   xmlns:cc="http://creativecommons.org/ns#"
   xmlns:rdf="http://www.w3.org/1999/02/22-rdf-syntax-ns#"
   xmlns:svg="http://www.w3.org/2000/svg"
   xmlns="http://www.w3.org/2000/svg"
   xmlns:sodipodi="http://sodipodi.sourceforge.net/DTD/sodipodi-0.dtd"
   xmlns:inkscape="http://www.inkscape.org/namespaces/inkscape"
   inkscape:version="1.0 (4035a4fb49, 2020-05-01)"
   sodipodi:docname="google-primary.svg"
   id="svg12"
   version="1.1"
   viewBox="0 0 34.934 35.611"
   height="35.611"
   width="34.934">
  <metadata
     id="metadata18">
    <rdf:RDF>
      <cc:Work
         rdf:about="">
        <dc:format>image/svg+xml</dc:format>
        <dc:type
           rdf:resource="http://purl.org/dc/dcmitype/StillImage" />
        <dc:title></dc:title>
      </cc:Work>
    </rdf:RDF>
  </metadata>
  <defs
     id="defs16" />
  <sodipodi:namedview
     inkscape:current-layer="svg12"
     inkscape:window-maximized="1"
     inkscape:window-y="243"
     inkscape:window-x="0"
     inkscape:cy="17.8055"
     inkscape:cx="9.5144265"
     inkscape:zoom="24.206004"
     showgrid="false"
     id="namedview14"
     inkscape:window-height="1016"
     inkscape:window-width="1920"
     inkscape:pageshadow="2"
     inkscape:pageopacity="0"
     guidetolerance="10"
     gridtolerance="10"
     objecttolerance="10"
     borderopacity="1"
     bordercolor="#666666"
     pagecolor="#ffffff" />
  <path
     style="fill:#3c292f;fill-opacity:1"
     fill="#fdfaee"
     transform="translate(-3.656 -3.382)"
     d="M38.385,18.443l-.18-.762H21.637v7.013h9.9c-1.027,4.881-5.8,7.449-9.693,7.449a11.591,11.591,0,0,1-7.8-3.108,11.136,11.136,0,0,1-3.322-7.86,11.486,11.486,0,0,1,3.262-7.852,11.1,11.1,0,0,1,7.749-3.031,10.107,10.107,0,0,1,6.593,2.569L33.308,7.9A17.632,17.632,0,0,0,21.569,3.382h0A18.147,18.147,0,0,0,8.725,8.605,18.074,18.074,0,0,0,3.656,21.183,17.892,17.892,0,0,0,8.528,33.556a18.586,18.586,0,0,0,13.4,5.437,16.529,16.529,0,0,0,12.039-5.06A17.775,17.775,0,0,0,38.591,21.62,20.5,20.5,0,0,0,38.385,18.443Z"
     data-name="Icon ionic-logo-google"
     id="Icon_ionic-logo-google" />
</svg>
