<svg xmlns="http://www.w3.org/2000/svg" width="34.934" height="35.611" viewBox="0 0 34.934 35.611">
  <path id="Icon_ionic-logo-google" data-name="Icon ionic-logo-google" d="M38.385,18.443l-.18-.762H21.637v7.013h9.9c-1.027,4.881-5.8,7.449-9.693,7.449a11.591,11.591,0,0,1-7.8-3.108,11.136,11.136,0,0,1-3.322-7.86,11.486,11.486,0,0,1,3.262-7.852,11.1,11.1,0,0,1,7.749-3.031,10.107,10.107,0,0,1,6.593,2.569L33.308,7.9A17.632,17.632,0,0,0,21.569,3.382h0A18.147,18.147,0,0,0,8.725,8.605,18.074,18.074,0,0,0,3.656,21.183,17.892,17.892,0,0,0,8.528,33.556a18.586,18.586,0,0,0,13.4,5.437,16.529,16.529,0,0,0,12.039-5.06A17.775,17.775,0,0,0,38.591,21.62,20.5,20.5,0,0,0,38.385,18.443Z" transform="translate(-3.656 -3.382)" fill="#fdfaee"/>
</svg>
