<?xml version="1.0" encoding="UTF-8" standalone="no"?>
<svg
   xmlns:dc="http://purl.org/dc/elements/1.1/"
   xmlns:cc="http://creativecommons.org/ns#"
   xmlns:rdf="http://www.w3.org/1999/02/22-rdf-syntax-ns#"
   xmlns:svg="http://www.w3.org/2000/svg"
   xmlns="http://www.w3.org/2000/svg"
   xmlns:sodipodi="http://sodipodi.sourceforge.net/DTD/sodipodi-0.dtd"
   xmlns:inkscape="http://www.inkscape.org/namespaces/inkscape"
   inkscape:version="1.0 (4035a4fb49, 2020-05-01)"
   sodipodi:docname="instagram-primary.svg"
   version="1.1"
   viewBox="0 0 38.402 38.402"
   height="38.402"
   width="38.402"
   id="Icon-Instagram">
  <metadata
     id="metadata29">
    <rdf:RDF>
      <cc:Work
         rdf:about="">
        <dc:format>image/svg+xml</dc:format>
        <dc:type
           rdf:resource="http://purl.org/dc/dcmitype/StillImage" />
        <dc:title></dc:title>
      </cc:Work>
    </rdf:RDF>
  </metadata>
  <defs
     id="defs27" />
  <sodipodi:namedview
     inkscape:current-layer="Icon-Instagram"
     inkscape:window-maximized="0"
     inkscape:window-y="251"
     inkscape:window-x="8"
     inkscape:cy="29.052384"
     inkscape:cx="-1.5850471"
     inkscape:zoom="11.223374"
     showgrid="false"
     id="namedview25"
     inkscape:window-height="1000"
     inkscape:window-width="948"
     inkscape:pageshadow="2"
     inkscape:pageopacity="0"
     guidetolerance="10"
     gridtolerance="10"
     objecttolerance="10"
     borderopacity="1"
     bordercolor="#666666"
     pagecolor="#ffffff" />
  <g
     style="fill:#3c292f;fill-opacity:1"
     data-name="Group 6"
     id="Group_6">
    <path
       style="fill:#3c292f;fill-opacity:1"
       fill="#fdfaee"
       transform="translate(-1399.442 -2797.251)"
       d="M1427.442,2797.251h-17.6a10.413,10.413,0,0,0-10.4,10.4v17.6a10.412,10.412,0,0,0,10.4,10.4h17.6a10.412,10.412,0,0,0,10.4-10.4v-17.6A10.413,10.413,0,0,0,1427.442,2797.251Zm7.2,28a7.209,7.209,0,0,1-7.2,7.2h-17.6a7.208,7.208,0,0,1-7.2-7.2v-17.6a7.208,7.208,0,0,1,7.2-7.2h17.6a7.208,7.208,0,0,1,7.2,7.2Z"
       data-name="Path 7"
       id="Path_7" />
    <path
       style="fill:#3c292f;fill-opacity:1"
       fill="#fdfaee"
       transform="translate(-1441.01 -2838.819)"
       d="M1460.21,2848.419a9.6,9.6,0,1,0,9.6,9.6A9.611,9.611,0,0,0,1460.21,2848.419Zm0,16a6.4,6.4,0,1,1,6.4-6.4A6.408,6.408,0,0,1,1460.21,2864.421Z"
       data-name="Path 8"
       id="Path_8" />
    <path
       style="fill:#3c292f;fill-opacity:1"
       fill="#fdfaee"
       transform="translate(-1517.216 -2826.697)"
       d="M1546.618,2833.5a2.2,2.2,0,1,0,2.2,2.2A2.2,2.2,0,0,0,1546.618,2833.5Z"
       data-name="Path 9"
       id="Path_9" />
  </g>
</svg>
