<svg id="Icon-Instagram" xmlns="http://www.w3.org/2000/svg" width="38.402" height="38.402" viewBox="0 0 38.402 38.402">
  <g id="Group_6" data-name="Group 6">
    <path id="Path_7" data-name="Path 7" d="M1427.442,2797.251h-17.6a10.413,10.413,0,0,0-10.4,10.4v17.6a10.412,10.412,0,0,0,10.4,10.4h17.6a10.412,10.412,0,0,0,10.4-10.4v-17.6A10.413,10.413,0,0,0,1427.442,2797.251Zm7.2,28a7.209,7.209,0,0,1-7.2,7.2h-17.6a7.208,7.208,0,0,1-7.2-7.2v-17.6a7.208,7.208,0,0,1,7.2-7.2h17.6a7.208,7.208,0,0,1,7.2,7.2Z" transform="translate(-1399.442 -2797.251)" fill="#fdfaee"/>
    <path id="Path_8" data-name="Path 8" d="M1460.21,2848.419a9.6,9.6,0,1,0,9.6,9.6A9.611,9.611,0,0,0,1460.21,2848.419Zm0,16a6.4,6.4,0,1,1,6.4-6.4A6.408,6.408,0,0,1,1460.21,2864.421Z" transform="translate(-1441.01 -2838.819)" fill="#fdfaee"/>
    <path id="Path_9" data-name="Path 9" d="M1546.618,2833.5a2.2,2.2,0,1,0,2.2,2.2A2.2,2.2,0,0,0,1546.618,2833.5Z" transform="translate(-1517.216 -2826.697)" fill="#fdfaee"/>
  </g>
</svg>
