<?xml version="1.0" encoding="UTF-8" standalone="no"?>
<svg
   xmlns:dc="http://purl.org/dc/elements/1.1/"
   xmlns:cc="http://creativecommons.org/ns#"
   xmlns:rdf="http://www.w3.org/1999/02/22-rdf-syntax-ns#"
   xmlns:svg="http://www.w3.org/2000/svg"
   xmlns="http://www.w3.org/2000/svg"
   xmlns:sodipodi="http://sodipodi.sourceforge.net/DTD/sodipodi-0.dtd"
   xmlns:inkscape="http://www.inkscape.org/namespaces/inkscape"
   inkscape:version="1.0 (4035a4fb49, 2020-05-01)"
   sodipodi:docname="tripadvisor-primary.svg"
   id="svg32"
   version="1.1"
   viewBox="0 0 55.443 32.87"
   height="32.87"
   width="55.443">
  <metadata
     id="metadata38">
    <rdf:RDF>
      <cc:Work
         rdf:about="">
        <dc:format>image/svg+xml</dc:format>
        <dc:type
           rdf:resource="http://purl.org/dc/dcmitype/StillImage" />
        <dc:title></dc:title>
      </cc:Work>
    </rdf:RDF>
  </metadata>
  <defs
     id="defs36" />
  <sodipodi:namedview
     inkscape:current-layer="svg32"
     inkscape:window-maximized="1"
     inkscape:window-y="243"
     inkscape:window-x="0"
     inkscape:cy="16.434999"
     inkscape:cx="19.203721"
     inkscape:zoom="22.599787"
     showgrid="false"
     id="namedview34"
     inkscape:window-height="1016"
     inkscape:window-width="1920"
     inkscape:pageshadow="2"
     inkscape:pageopacity="0"
     guidetolerance="10"
     gridtolerance="10"
     objecttolerance="10"
     borderopacity="1"
     bordercolor="#666666"
     pagecolor="#ffffff" />
  <path
     style="fill:#3c292f;fill-opacity:1"
     fill="#fdfaee"
     transform="translate(0 -5.994)"
     d="M16.017,24.79a2.307,2.307,0,1,1-2.307-2.307A2.307,2.307,0,0,1,16.017,24.79Zm25.5-2.306a2.306,2.306,0,1,0,2.306,2.306A2.306,2.306,0,0,0,41.52,22.484Zm8.6,13.427a13.875,13.875,0,0,1-19.48-2.364l-2.982,4.459-2.953-4.422A13.863,13.863,0,0,1,2.717,16.708,17.977,17.977,0,0,0,0,11.208l8.69,0A34.505,34.505,0,0,1,27.659,6a33.726,33.726,0,0,1,18.5,5.135l9.261.007a17.876,17.876,0,0,0-2.729,5.549A13.876,13.876,0,0,1,50.124,35.91Zm-25.159-11A11.077,11.077,0,1,0,13.889,35.987,11.077,11.077,0,0,0,24.965,24.909v0ZM27.717,23.9A13.83,13.83,0,0,1,41.108,11.1,32.644,32.644,0,0,0,27.659,8.422a34.3,34.3,0,0,0-13.491,2.623A13.883,13.883,0,0,1,27.717,23.9Zm24.228-2.769A11.077,11.077,0,1,0,31.159,28.8v0a11.078,11.078,0,0,0,20.786-7.669ZM20.562,24.789V24.8a6.858,6.858,0,1,1,0-.011Zm-2.359,0v-.008a4.5,4.5,0,1,0,0,.008Zm30.168,0v0a6.854,6.854,0,1,1-6.851-6.858,6.854,6.854,0,0,1,6.851,6.858Zm-2.359,0a4.494,4.494,0,1,0-4.492,4.5,4.494,4.494,0,0,0,4.492-4.5h0Z"
     data-name="Icon awesome-tripadvisor"
     id="Icon_awesome-tripadvisor" />
</svg>
