<?xml version="1.0" encoding="UTF-8" standalone="no"?>
<svg
   xmlns:dc="http://purl.org/dc/elements/1.1/"
   xmlns:cc="http://creativecommons.org/ns#"
   xmlns:rdf="http://www.w3.org/1999/02/22-rdf-syntax-ns#"
   xmlns:svg="http://www.w3.org/2000/svg"
   xmlns="http://www.w3.org/2000/svg"
   xmlns:sodipodi="http://sodipodi.sourceforge.net/DTD/sodipodi-0.dtd"
   xmlns:inkscape="http://www.inkscape.org/namespaces/inkscape"
   inkscape:version="1.0 (4035a4fb49, 2020-05-01)"
   sodipodi:docname="yelp-primary.svg"
   id="svg41"
   version="1.1"
   viewBox="0 0 36.721 49.283"
   height="49.283"
   width="36.721">
  <metadata
     id="metadata47">
    <rdf:RDF>
      <cc:Work
         rdf:about="">
        <dc:format>image/svg+xml</dc:format>
        <dc:type
           rdf:resource="http://purl.org/dc/dcmitype/StillImage" />
        <dc:title></dc:title>
      </cc:Work>
    </rdf:RDF>
  </metadata>
  <defs
     id="defs45" />
  <sodipodi:namedview
     inkscape:current-layer="svg41"
     inkscape:window-maximized="1"
     inkscape:window-y="243"
     inkscape:window-x="0"
     inkscape:cy="24.6415"
     inkscape:cx="7.3547258"
     inkscape:zoom="17.490818"
     showgrid="false"
     id="namedview43"
     inkscape:window-height="1016"
     inkscape:window-width="1920"
     inkscape:pageshadow="2"
     inkscape:pageopacity="0"
     guidetolerance="10"
     gridtolerance="10"
     objecttolerance="10"
     borderopacity="1"
     bordercolor="#666666"
     pagecolor="#ffffff" />
  <path
     style="fill:#3c292f;fill-opacity:1"
     fill="#fdfaee"
     transform="translate(-0.071 0)"
     d="M4.1,23.132l9.589,4.679a2.2,2.2,0,0,1-.433,4.111L2.91,34.5A2.194,2.194,0,0,1,.194,32.616,18.978,18.978,0,0,1,1.061,24.4,2.195,2.195,0,0,1,4.1,23.132ZM8.338,46.161a19.2,19.2,0,0,0,7.645,3.091,2.193,2.193,0,0,0,2.562-2.087L18.921,36.5a2.2,2.2,0,0,0-3.832-1.55L7.946,42.879a2.2,2.2,0,0,0,.394,3.281Zm13.99-10.58,5.661,9.048a2.207,2.207,0,0,0,3.273.529,19.093,19.093,0,0,0,5.074-6.508,2.214,2.214,0,0,0-1.308-3.036l-10.147-3.3a2.207,2.207,0,0,0-2.552,3.264ZM36.605,22.853a19,19,0,0,0-4.852-6.671,2.2,2.2,0,0,0-3.273.424l-5.968,8.848a2.2,2.2,0,0,0,2.426,3.341L35.2,25.857a2.214,2.214,0,0,0,1.406-3ZM5.952,2.9A2.2,2.2,0,0,0,5,5.985L15.021,23.353a2.2,2.2,0,0,0,4.1-1.1V2.2A2.182,2.182,0,0,0,16.765.008,30.837,30.837,0,0,0,5.952,2.9Z"
     data-name="Icon awesome-yelp"
     id="Icon_awesome-yelp" />
</svg>
